<?xml version="1.0" encoding="utf-8"?>
<!-- Generator: Adobe Illustrator 21.0.0, SVG Export Plug-In . SVG Version: 6.00 Build 0)  -->
<svg version="1.1" id="Слой_1" xmlns="http://www.w3.org/2000/svg" xmlns:xlink="http://www.w3.org/1999/xlink" x="0px" y="0px"
	 viewBox="0 0 595.3 419.5" style="enable-background:new 0 0 595.3 419.5;" xml:space="preserve">
<g>
	<path d="M79.4,167.9h-16v40.6c0,2.7,1,4.6,2.7,6.2l23.2,17v0.5H0v-0.5l16.7-15.6c1.4-1.4,2.2-3.5,2.2-5.9V80.9
		c0-2.5-0.8-4.4-2.2-5.9L0.2,59.5V59h85.6c9.2,0,17.6,1,25.2,2.7c7.6,1.7,14.8,4.6,21.3,8.6c6.5,3.8,11.7,9.2,15.4,16.2
		c3.7,7,5.6,15.2,5.6,24.8c0,18.7-6.7,32.9-19.8,42.4C120.1,163.2,102.1,167.9,79.4,167.9z M63.5,68.5v94.3h11.3
		c9.8,0,17.6-4.4,23.3-13.5c5.7-9,8.6-21.3,8.6-37c0-14.8-2.5-26.5-7.8-35.4c-5.2-8.7-12.4-13.2-21.6-13.2H68
		c-1.9,0-3.2,0.3-3.7,0.8C63.7,65.4,63.5,66.6,63.5,68.5z"/>
	<path d="M180.2,110.3H235v104.3c0,2.7,0.8,4.6,2.2,5.9l12.1,11.3v0.5h-69.1v-0.5l12.1-11.3c1.4-1.3,2.2-3.3,2.2-5.9v-85.3
		c0-2.5-0.8-4.4-2.2-6.2l-12.1-12.4V110.3z M214.1,96.6c-5.4,0-10-1.7-14-5.1c-3.8-3.3-5.7-7.8-5.7-13.2c0-5.7,1.9-10.3,5.7-14
		c3.8-3.5,8.6-5.2,14-5.2c5.7,0,10.5,1.7,14.3,5.2c3.8,3.5,5.7,8.1,5.7,14c0,5.4-1.9,9.8-5.7,13.2C224.5,95.1,219.8,96.6,214.1,96.6
		z"/>
	<path d="M326.9,52.7v161.9c0,2.5,0.8,4.4,2.5,5.9l12.1,11.3v0.5h-69.1v-0.5l12.1-11.3c1.4-1.4,2.2-3.5,2.2-5.9V77.1
		c0-2.7-0.8-4.6-2.2-6.2l-12.1-11.3V59L326.9,52.7z"/>
	<path d="M456.5,149.5l33,65.1c1.4,2.9,3.3,5.4,5.7,7.6l10.3,9.7v0.5h-52.2L426,174.3c-0.8-1.9-2.4-3-4.4-3c-1,0-1.9,0.3-2.7,1v42.4
		c0,2.5,0.8,4.4,2.4,5.9l12.1,11.3v0.5h-68.9v-0.5l12.1-11.3c1.4-1.4,2.2-3.5,2.2-5.9V77.1c0-2.7-0.8-4.6-2.2-6.2l-12.1-11.3V59
		l54.5-6.4v116.9l39.9-29.8c1.7-1.3,1.9-3,0.5-4.9l-16.8-24v-0.5h60.3v0.5l-45.1,34.3C456,146.2,455.7,147.6,456.5,149.5z"/>
	<path d="M526.2,110.3H581v104.3c0,2.7,0.8,4.6,2.2,5.9l12.1,11.3v0.5h-69.1v-0.5l12.1-11.3c1.4-1.3,2.2-3.3,2.2-5.9v-85.3
		c0-2.5-0.8-4.4-2.2-6.2l-12.1-12.4V110.3z M560,96.6c-5.4,0-10-1.7-14-5.1c-3.8-3.3-5.9-7.8-5.9-13.2c0-5.7,1.9-10.3,5.9-14
		c3.8-3.5,8.6-5.2,14-5.2c5.7,0,10.5,1.7,14.3,5.2c3.8,3.5,5.7,8.1,5.7,14c0,5.4-1.9,9.8-5.7,13.2C570.5,95.1,565.7,96.6,560,96.6z"
		/>
</g>
<g>
	<g>
		<path d="M137.4,355.9c-6.2,0-11.9-0.8-17-2.5v-19.2h0.2l8.4,18.1c0.5,1.1,1.1,1.6,2.1,1.7c1.9,0.3,3.8,0.5,5.4,0.5
			c4.3,0,7.9-1.1,10.8-3.2c2.9-2.1,4.3-5.2,4.3-9.4c0-3-1-5.6-2.9-7.6c-1.9-1.9-4.8-4-8.9-5.9l-7.9-3.8c-3.7-1.7-6.7-4.1-9-7.1
			c-2.4-3-3.7-6.7-3.7-10.8c0-5.1,1.9-9.4,5.6-12.7c3.8-3.3,8.6-4.9,14.3-4.9c4.8,0,10,0.8,15.9,2.2V310h-0.2l-8.7-17.6
			c-0.5-1-1-1.4-1.7-1.4c-1.3-0.3-2.5-0.3-4.1-0.3c-4.1,0-7.5,1.1-9.8,3.5c-2.5,2.4-3.8,5.4-3.8,9.2c0,5.2,3,9.2,9.2,12.1l9.5,4.6
			c4.6,2.2,8.1,4.4,10.5,7c2.4,2.5,3.7,5.7,3.7,9.7c0,5.4-2.1,10-6,13.7C149.4,354,144,355.9,137.4,355.9z"/>
		<path d="M203.6,355.9c-10.5,0-18.3-3-23.3-8.9c-5.1-6-7.6-14-7.6-24.1c0-10.2,2.7-18.3,7.9-24.3c5.2-6.2,12.5-9.2,21.9-9.2
			c5.4,0,11,0.6,16.7,2.1V311H219l-9.4-17.9c-0.3-0.6-0.8-1.1-1.1-1.3c-0.3-0.2-1-0.3-1.9-0.5c-1.3-0.2-2.5-0.3-3.8-0.3
			c-12.9,0-19.2,10.6-19.2,31.9s6.7,31.8,19.8,31.8c0.8,0,1.9,0,3.2-0.2c1.3-0.2,2.2-0.6,2.7-1.6l9.4-18.6h0.2v20
			C214.1,355.3,209,355.9,203.6,355.9z"/>
		<path d="M288.7,296.5v52.1c0,0.5,0,1,0.2,1.1c0.2,0.2,0.5,0.5,1,0.6l7.9,4.3v0.2h-27.8v-0.2l7.9-4.3c0.8-0.5,1.3-1.1,1.3-1.9
			v-25.9h-27.6v26c0,0.5,0,1,0.2,1.1c0.2,0.2,0.5,0.5,1,0.6l7.9,4.3v0.2h-27.9v-0.2l7.9-4.3c0.8-0.5,1.3-1.1,1.3-1.9v-52.1
			c0-0.8-0.5-1.4-1.3-1.9l-7.9-4.3V290h27.8v0.2l-7.9,4.3c-0.6,0.3-1,0.6-1,0.8c-0.2,0.2-0.2,0.6-0.2,1.1V321H279v-24.5
			c0-0.8-0.5-1.4-1.3-1.9l-7.9-4.3v-0.2h27.9v0.2l-7.9,4.3c-0.5,0.3-1,0.6-1,0.8C288.7,295.6,288.7,296.1,288.7,296.5z"/>
		<path d="M315.5,298c4.9-5.9,12.1-8.9,21-8.9c9.1,0,16,3,21,8.9c4.9,5.9,7.5,14,7.5,24.5c0,10.3-2.5,18.6-7.5,24.5
			c-4.9,5.9-11.9,8.9-21,8.9s-16-3-21-8.9c-4.9-5.9-7.5-14.1-7.5-24.5C308,312.1,310.4,304,315.5,298z M336.5,354.3
			c5.2,0,9.5-2.5,12.7-7.6c3.2-5.1,4.8-13.2,4.8-24.3s-1.6-19.1-4.8-24.1c-3.2-5.1-7.5-7.6-12.7-7.6c-5.2,0-9.5,2.5-12.7,7.6
			c-3.2,5.1-4.8,13.2-4.8,24.1c0,11.1,1.6,19.2,4.8,24.1C326.9,351.8,331.2,354.3,336.5,354.3z"/>
		<path d="M385.8,298c4.9-5.9,12.1-8.9,21-8.9c9.1,0,16,3,21,8.9c4.9,5.9,7.5,14,7.5,24.5c0,10.3-2.5,18.6-7.5,24.5
			c-4.9,5.9-11.9,8.9-21,8.9s-16-3-21-8.9s-7.5-14.1-7.5-24.5C378.4,312.1,380.9,304,385.8,298z M407,354.3c5.2,0,9.5-2.5,12.7-7.6
			c3.2-5.1,4.8-13.2,4.8-24.3s-1.6-19.1-4.8-24.1c-3.2-5.1-7.5-7.6-12.7-7.6c-5.2,0-9.5,2.5-12.7,7.6c-3.2,5.1-4.8,13.2-4.8,24.1
			c0,11.1,1.6,19.2,4.8,24.1C397.4,351.8,401.6,354.3,407,354.3z"/>
		<path d="M454.6,348.6v-52.1c0-0.8-0.5-1.4-1.1-1.9l-7.9-4.3v-0.2h27.8v0.2l-7.9,4.3c-0.6,0.3-1,0.6-1,0.8
			c-0.2,0.2-0.2,0.6-0.2,1.1v54.6c0,0.8,0.2,1.4,0.3,1.7s0.6,0.5,1.3,0.5h14.6c1.6,0,2.7-0.5,3.2-1.3l8.7-17.8h0.2V355h-46.7v-0.2
			l7.9-4.3C454.3,350,454.6,349.4,454.6,348.6z"/>
	</g>
</g>
</svg>
